<svg xmlns="http://www.w3.org/2000/svg" viewBox="0 0 91.18 82.54"><g id="Layer_2" data-name="Layer 2"><g id="Layer_1-2" data-name="Layer 1"><path d="M91.15,39.18a8.06,8.06,0,0,0-8.09-7.31H66.57a1.44,1.44,0,0,0,0,2.87H83.09a5.18,5.18,0,0,1,5.22,4.9,5.1,5.1,0,0,1-5.09,5.29H58.79l-.85,1.31L36.34,79.67h-1L41,51.42H38.12L31.83,82.54H37.9L60.35,47.8H83.22a8,8,0,0,0,7.93-8.62" style="fill:#fff"/><path d="M6.67,31.85A1.43,1.43,0,0,0,8,30L6.8,26.15h3.72l6.85,10.19.85,1.26H42.34l-.69-3.43L35.33,2.86h1L58,36.29l.84,1.31H62.2L37.9,0H31.83l7,34.74H19.75l-7.7-11.45H2.87l2.44,7.56a1.43,1.43,0,0,0,1.36,1" style="fill:#fff"/><path d="M38.84,50.66h1.75a1.43,1.43,0,1,0,0-2.86H18.22l-.85,1.26L10.52,59.25H6.8l2.51-7.84,1-3.12-3.24-.57a5.09,5.09,0,0,1-.45-9.93h0l.39-.09a5.29,5.29,0,0,1,.9-.08h.72v-.2h0V34.86h0v-.12H8a7.31,7.31,0,0,0-1.33.12h0A8,8,0,0,0,0,42.7H0a8,8,0,0,0,6.59,7.84L2.88,62.11h9.17l7.7-11.45H38.84Z" style="fill:#fff"/></g></g></svg>