<svg xmlns="http://www.w3.org/2000/svg" viewBox="0 0 145.46 45.85"><g id="Layer_2" data-name="Layer 2"><g id="Layer_1-2" data-name="Layer 1"><path d="M52.31,31.86V29.3H39.58V23H33.19V20.42a1.28,1.28,0,1,0-2.56,0v5.1H37v6.34Z" style="fill:#000"/><path d="M2.57,36.74V31L16.65,15.33H37v2.53a1.29,1.29,0,0,0,2.57,0v-5.1H15.49L0,30v6.76a9.12,9.12,0,0,0,9.1,9.11H83V43.29H9.11a6.56,6.56,0,0,1-6.54-6.55" style="fill:#000"/><path d="M81.67,29.33H56.26V31.9H81.67a1.29,1.29,0,0,0,0-2.57" style="fill:#000"/><path d="M114.87,30.61h0a1.28,1.28,0,0,0-1.28-1.28H86.77V31.9h26.82a1.28,1.28,0,0,0,1.28-1.29" style="fill:#000"/><path d="M114.84,20.41h0a1.28,1.28,0,0,0-1.28-1.28H86.76v2.56h26.8a1.28,1.28,0,0,0,1.28-1.28" style="fill:#000"/><path d="M81.67,19.13H56.12V21.7H81.67a1.29,1.29,0,0,0,0-2.57" style="fill:#000"/><path d="M83,15.31A1.28,1.28,0,0,0,81.67,14H56.05v2.56H81.67A1.28,1.28,0,0,0,83,15.31" style="fill:#000"/><path d="M114.85,15.31A1.28,1.28,0,0,0,113.57,14H86.76v2.56h26.81a1.28,1.28,0,0,0,1.28-1.28" style="fill:#000"/><path d="M81.67,24.22H56.19v2.56H81.67a1.28,1.28,0,0,0,0-2.56" style="fill:#000"/><path d="M114.81,25.5h0a1.28,1.28,0,0,0-1.29-1.28H86.76v2.56h26.76a1.28,1.28,0,0,0,1.29-1.28" style="fill:#000"/><path d="M118.68,29.34v2.57h22.57l-6,11.38H88.05a1.28,1.28,0,0,0,0,2.56h48.73l8.68-16.51Z" style="fill:#000"/><path d="M33.2,1.28a1.29,1.29,0,0,0-2.57,0v8.93H33.2Z" style="fill:#000"/></g></g></svg>