<?xml version="1.0" encoding="UTF-8"?>
<svg xmlns="http://www.w3.org/2000/svg" viewBox="0 0 522.1 522.1">
  <g id="Layer_2" data-name="Layer 2">
    <g id="Layer_1-2" data-name="Layer 1">
      <path d="M260.3,0C405.41,0,522.1,116.69,522.1,260.3A261.13,261.13,0,0,1,260.3,522.1C116.69,522.1,0,405.41,0,260.3,0,116.69,116.69,0,260.3,0ZM56.85,372.5h77.79c-9-31.41-15-64.33-16.46-97.24H28.42A216.28,216.28,0,0,0,56.85,372.5Zm107.71,0,82.28,1.5V275.26H146.61A359.75,359.75,0,0,0,164.56,372.5Zm110.7,1.5h82.28a370.57,370.57,0,0,0,17.95-98.74H275.26Zm112.2,0h77.79c16.46-29.92,26.93-62.83,28.43-98.74H403.92A439.59,439.59,0,0,1,387.46,374Zm59.84,26.93H377a316.52,316.52,0,0,1-49.37,83.77C375.49,469.74,417.38,441.32,447.3,400.93Zm-100.23,0H275.26v92.75h4.49C308.17,468.25,330.61,436.83,347.07,400.93Zm-100.23,0H175c16.46,34.4,38.9,67.32,67.32,92.75h4.49Zm-101.73,0H74.8A243.53,243.53,0,0,0,194.48,484.7,316.79,316.79,0,0,1,145.11,400.93ZM28.42,246.84h89.76a439.59,439.59,0,0,1,16.46-98.74H56.85C40.39,178,29.92,210.93,28.42,246.84Zm118.19,0H246.84V148.1H164.56A370.57,370.57,0,0,0,146.61,246.84Zm128.65,0H375.49a381.67,381.67,0,0,0-17.95-98.74H275.26Zm128.66,0h89.76a216.28,216.28,0,0,0-28.43-97.24H387.46C396.44,181,402.42,213.93,403.92,246.84ZM74.8,121.18h70.31A316.85,316.85,0,0,1,194.48,37.4C146.61,52.36,104.72,80.78,74.8,121.18Zm100.23,0h71.81V28.42h-4.49C213.93,53.86,191.49,85.27,175,121.18Zm100.23,0h71.81c-16.46-34.41-38.9-67.32-67.32-92.76h-4.49Zm101.73,0H447.3A243.48,243.48,0,0,0,327.62,37.4,316.58,316.58,0,0,1,377,121.18Z" style="fill:#fff"></path>
    </g>
  </g>
</svg>
