<svg xmlns="http://www.w3.org/2000/svg" viewBox="0 0 507.08 102.27"><g id="Layer_2" data-name="Layer 2"><g id="Layer_1-2" data-name="Layer 1"><polygon points="350.88 99.94 332.5 99.94 360.78 50.94 332.5 1.94 350.88 1.94 379.17 50.94 350.88 99.94" style="fill:#fff"/><rect x="397" y="42.96" width="110.08" height="16.35" style="fill:#fff"/><rect y="42.96" width="187.08" height="16.35" style="fill:#fff"/><path d="M263.84,102.27V86.41c17.61-2,30.72-17,30.72-35.27s-13.11-33.3-30.72-35.28V0a51.29,51.29,0,0,1,0,102.27" style="fill:#fff"/><path d="M255.94,15.85c-17.74,2-30.85,17-30.85,35.29s13.11,33.31,30.85,35.28v15.85a50.93,50.93,0,0,1-47.35-51.13A50.93,50.93,0,0,1,255.94,0Z" style="fill:#fff"/></g></g></svg>