<svg xmlns="http://www.w3.org/2000/svg" viewBox="0 0 141.27 39.27"><g id="Layer_2" data-name="Layer 2"><g id="Layer_1-2" data-name="Layer 1"><path d="M79,28.81A5.23,5.23,0,1,0,84.23,34,5.23,5.23,0,0,0,79,28.81m0,7.91A2.68,2.68,0,1,1,81.68,34,2.69,2.69,0,0,1,79,36.72" style="fill:#fff"/><path d="M110.92,32.9H96.3a5.24,5.24,0,1,0-.07,2.54h17.24V26.67h-2.55ZM91.2,36.72A2.68,2.68,0,1,1,93.88,34a2.68,2.68,0,0,1-2.68,2.68" style="fill:#fff"/><path d="M135,7.55h0a1.25,1.25,0,0,0-1.25-1.25H117.26V8.79h16.46A1.24,1.24,0,0,0,135,7.55" style="fill:#fff"/><path d="M141.27,24.39l-3.75-2.59V13.9H135v6.15l-12.64-8.7h-4.48l20.87,14.37V32.9h-2.6a5.23,5.23,0,0,0-10.21,0h-7.37a1.27,1.27,0,1,0,0,2.54H126a5.22,5.22,0,0,0,10.07,0h5.22ZM131,36.72A2.68,2.68,0,1,1,133.7,34,2.69,2.69,0,0,1,131,36.72" style="fill:#fff"/><polygon points="119.67 9.24 119.61 9.2 119.58 9.24 119.67 9.24" style="fill:#fff"/><path d="M16.54,28.81a5.23,5.23,0,0,0-5.1,4.09H8.79V26.54H1.27a1.28,1.28,0,0,0,0,2.55h5v6.35h5.27a5.23,5.23,0,1,0,5-6.63m0,7.91A2.68,2.68,0,1,1,19.23,34a2.68,2.68,0,0,1-2.69,2.68" style="fill:#fff"/><path d="M29.21,28.81A5.23,5.23,0,1,0,34.44,34a5.23,5.23,0,0,0-5.23-5.23m0,7.91A2.68,2.68,0,1,1,31.89,34a2.68,2.68,0,0,1-2.68,2.68" style="fill:#fff"/><path d="M37.93,34.17a1.27,1.27,0,0,0,1.27,1.27H70.4V32.9H39.2a1.27,1.27,0,0,0-1.27,1.27" style="fill:#fff"/><rect x="95" width="2.67" height="22.73" style="fill:#fff"/><rect x="32.05" width="2.67" height="22.66" style="fill:#fff"/><rect x="39.91" width="2.67" height="22.66" style="fill:#fff"/><rect x="16.31" width="2.67" height="22.66" style="fill:#fff"/><rect x="8.34" width="2.67" height="22.66" style="fill:#fff"/><rect x="0.37" width="2.67" height="22.66" style="fill:#fff"/><rect x="24.18" width="2.67" height="22.66" style="fill:#fff"/><rect x="47.78" width="2.67" height="22.66" style="fill:#fff"/><rect x="55.65" width="2.67" height="22.66" style="fill:#fff"/><rect x="63.52" width="2.67" height="22.66" style="fill:#fff"/><rect x="71.39" width="2.67" height="22.66" style="fill:#fff"/><rect x="79.26" width="2.67" height="22.66" style="fill:#fff"/><rect x="87.13" width="2.67" height="22.66" style="fill:#fff"/><rect x="102.87" width="2.67" height="22.66" style="fill:#fff"/><rect x="110.74" width="2.67" height="22.66" style="fill:#fff"/></g></g></svg>